<svg width="40" height="17" viewBox="0 0 40 17" fill="none" xmlns="http://www.w3.org/2000/svg">
<path d="M39.5056 2.1609C39.176 1.83143 38.7852 1.66615 38.3337 1.66615C37.8824 1.66615 37.4922 1.83143 37.1619 2.1609L33.7767 5.52077C31.9191 3.76709 29.7921 2.40827 27.3964 1.44495C25.001 0.48155 22.535 -6.10352e-05 20.0001 -6.10352e-05C15.2256 -6.10352e-05 11.0592 1.44505 7.49998 4.3359C3.94072 7.22639 1.59707 10.9977 0.468567 15.6508L0.468567 15.833C0.468567 16.0587 0.550933 16.2541 0.715939 16.4189C0.880946 16.5839 1.07614 16.6662 1.30181 16.6662H6.48404C6.86614 16.6662 7.12637 16.4665 7.26538 16.0674C7.99446 14.3314 8.45436 13.3159 8.64554 13.0206C9.86069 11.0414 11.4753 9.4875 13.4893 8.35899C15.5035 7.23058 17.6735 6.66615 19.9998 6.66615C23.4897 6.66615 26.5191 7.85549 29.0888 10.234L25.4944 13.8276C25.1654 14.1575 24.9999 14.5483 24.9999 14.9998C24.9999 15.4511 25.1653 15.8418 25.4944 16.1716C25.8247 16.5015 26.2155 16.6663 26.6669 16.6663H38.3337C38.7851 16.6663 39.1759 16.5015 39.5056 16.1716C39.8352 15.8418 40 15.4512 40 14.9998V3.33282C40 2.8814 39.8362 2.49091 39.5056 2.1609Z" fill="white"/>
</svg>
