<svg width="40" height="17" viewBox="0 0 40 17" fill="none" xmlns="http://www.w3.org/2000/svg">
<path d="M38.5154 0.333432L33.5154 0.333432C33.1334 0.333432 32.873 0.532917 32.7344 0.932344C32.0056 2.66852 31.5452 3.68364 31.3545 3.9789C30.1389 5.95761 28.5243 7.51208 26.5108 8.6405C24.4965 9.76927 22.3265 10.3331 20.0001 10.3331C18.3162 10.3331 16.6928 10.0208 15.1305 9.39602C13.568 8.77048 12.1702 7.88488 10.9377 6.73895L14.5056 3.17138C14.8353 2.84182 15.0003 2.4507 15.0003 1.99955C15.0003 1.54822 14.8353 1.1571 14.5056 0.827721C14.1757 0.497525 13.7852 0.332336 13.3338 0.332336L1.66685 0.332336C1.21515 0.332336 0.824484 0.497525 0.494654 0.827721C0.164824 1.15719 0 1.54831 0 1.99964L0 13.6666C0 14.1176 0.164824 14.5087 0.494745 14.8384C0.824849 15.1677 1.21552 15.3335 1.66694 15.3335C2.11826 15.3335 2.50875 15.1678 2.83876 14.8384L6.19808 11.4787C8.05584 13.2492 10.1697 14.6124 12.5396 15.5672C14.9094 16.5224 17.3617 16.9994 19.8962 16.9994C24.6535 16.9994 28.8027 15.5541 32.3443 12.6636C35.886 9.77319 38.2124 6.00112 39.324 1.34846C39.3414 1.3138 39.3496 1.25296 39.3496 1.16649C39.3496 0.940464 39.2669 0.745812 39.102 0.580258C38.9369 0.416164 38.7414 0.333432 38.5154 0.333432Z" fill="white"/>
</svg>
